# xmcd
#
# Track frame offsets: 
#        150
#        6120
#        16551
#        25780
#        36604
#        42527
#        56659
#        65518
#        75716
#        84817
#        92712
#        103385
#        113678
#        125161
#        134102
#        150051
#        158404
#
# Disc length: 2239 seconds
#
# Revision: 1
# Processed by: cddbd v1.5.2PL0 Copyright (c) Steve Scherf et al.
# Submitted via: ExactAudioCopyFreeDBPlugin 1.0
#
DISCID=d108bd11
DTITLE=Bluegrass Cwrkot - The Songs We Like
DYEAR=2008
DGENRE=Bluegrass
TTITLE0=Howdy Neighbor, Howdy
TTITLE1=Crying Holy
TTITLE2=Hot Corn, Cold Corn
TTITLE3=I Saw The Light
TTITLE4=Devil's Dream
TTITLE5=Houston
TTITLE6=Rocks in The Mountains
TTITLE7=Muleskinner Blues
TTITLE8=I Don't Care
TTITLE9=This Little Light of Mine
TTITLE10=Blue Yodel No. 4
TTITLE11=Hoss Fly
TTITLE12=Ages and Ages Ago
TTITLE13=Tear It Down
TTITLE14=All The Good Times Are Past and Gone
TTITLE15=Don't Let Your Deal Go Down
TTITLE16=When The Angles Carry Me Home
EXTD=
EXTT0=
EXTT1=
EXTT2=
EXTT3=
EXTT4=
EXTT5=
EXTT6=
EXTT7=
EXTT8=
EXTT9=
EXTT10=
EXTT11=
EXTT12=
EXTT13=
EXTT14=
EXTT15=
EXTT16=
PLAYORDER=
